<svg width="700" height="700" viewBox="0 0 700 700" fill="none" xmlns="http://www.w3.org/2000/svg">
<rect width="700" height="700" fill="#1E1E1E"/>
<g clip-path="url(#clip0_0_1)">
<rect width="700" height="700" fill="white"/>
<g clip-path="url(#clip1_0_1)">
<path d="M0 0C231 0 462 0 700 0C700 231 700 462 700 700C469 700 238 700 0 700C0 469 0 238 0 0Z" fill="#FEFEFE"/>
<path d="M345 102C369.42 102 393.84 102 419 102C419 106.29 419 110.58 419 115C426.59 115 434.18 115 442 115C442 118.63 442 122.26 442 126C445.63 126 449.26 126 453 126C453 134.58 453 143.16 453 152C456.63 152 460.26 152 464 152C464 160.91 464 169.82 464 179C467.3 179 470.6 179 474 179C474 200.45 474 221.9 474 244C477.63 244 481.26 244 485 244C485 253.24 485 262.48 485 272C488.63 272 492.26 272 496 272C496 279.59 496 287.18 496 295C499.96 295 503.92 295 508 295C508 299.29 508 303.58 508 308C511.96 308 515.92 308 520 308C520 312.29 520 316.58 520 321C523.96 321 527.92 321 532 321C532 324.96 532 328.92 532 333C535.63 333 539.26 333 543 333C543 336.96 543 340.92 543 345C555.87 345 568.74 345 582 345C582 349.62 582 354.24 582 359C578.04 359 574.08 359 570 359C570 362.96 570 366.92 570 371C561.42 371 552.84 371 544 371C544 371.99 544 372.98 544 374C548.95 374 553.9 374 559 374C559 376.97 559 379.94 559 383C562.96 383 566.92 383 571 383C571 391.25 571 399.5 571 408C566.71 408 562.42 408 558 408C558 404.04 558 400.08 558 396C554.04 396 550.08 396 546 396C546 399.96 546 403.92 546 408C549.63 408 553.26 408 557 408C557 419.88 557 431.76 557 444C552.05 444 547.1 444 542 444C542 440.04 542 436.08 542 432C536.06 432 530.12 432 524 432C524 435.63 524 439.26 524 443C525.98 443 527.96 443 530 443C530 457.52 530 472.04 530 487C525.71 487 521.42 487 517 487C517 482.38 517 477.76 517 473C513.04 473 509.08 473 505 473C505 469.04 505 465.08 505 461C501.7 461 498.4 461 495 461C495 469.25 495 477.5 495 486C490.38 486 485.76 486 481 486C481 496.23 481 506.46 481 517C478.36 517 475.72 517 473 517C473 521.29 473 525.58 473 530C477.62 530 482.24 530 487 530C487 537.26 487 544.52 487 552C480.4 552 473.8 552 467 552C467 543.09 467 534.18 467 525C463.37 525 459.74 525 456 525C456 534.24 456 543.48 456 553C459.63 553 463.26 553 467 553C467 556.3 467 559.6 467 563C473.27 563 479.54 563 486 563C486 572.57 486 582.14 486 592C489.3 592 492.6 592 496 592C496 582.1 496 572.2 496 562C499.96 562.33 503.92 562.66 508 563C508 572.57 508 582.14 508 592C511.63 592 515.26 592 519 592C519 595.3 519 598.6 519 602C522.63 602 526.26 602 530 602C530 614.54 530 627.08 530 640C522.41 640 514.82 640 507 640C507 636.04 507 632.08 507 628C489.84 628 472.68 628 455 628C455 624.37 455 620.74 455 617C447.74 617 440.48 617 433 617C433 620.63 433 624.26 433 628C436.63 628 440.26 628 444 628C444 631.96 444 635.92 444 640C439.687 640.027 435.375 640.047 431.062 640.062C429.831 640.071 428.599 640.079 427.33 640.088C426.16 640.091 424.99 640.094 423.785 640.098C422.701 640.103 421.617 640.108 420.5 640.114C418 640 418 640 417 639C417 635.7 417 632.4 417 629C410.07 629 403.14 629 396 629C396 625.04 396 621.08 396 617C388.74 617 381.48 617 374 617C374 620.63 374 624.26 374 628C377.63 628 381.26 628 385 628C385 631.96 385 635.92 385 640C373.78 640 362.56 640 351 640C351 636.37 351 632.74 351 629C347.04 629 343.08 629 339 629C339 632.63 339 636.26 339 640C329.76 640 320.52 640 311 640C311 636.04 311 632.08 311 628C314.63 628 318.26 628 322 628C322 624.37 322 620.74 322 617C313.42 617 304.84 617 296 617C296 613.37 296 609.74 296 606C292.04 606 288.08 606 284 606C284 609.63 284 613.26 284 617C280.7 617 277.4 617 274 617C274 620.63 274 624.26 274 628C268.72 628 263.44 628 258 628C258 624.37 258 620.74 258 617C249.42 617 240.84 617 232 617C232 613.37 232 609.74 232 606C223.09 606 214.18 606 205 606C205 602.04 205 598.08 205 594C211.6 594 218.2 594 225 594C225 590.04 225 586.08 225 582C232.59 582 240.18 582 248 582C248 577.71 248 573.42 248 569C255.26 569 262.52 569 270 569C270 565.7 270 562.4 270 559C273.63 559 277.26 559 281 559C281 548.11 281 537.22 281 526C284.96 526 288.92 526 293 526C293 522.7 293 519.4 293 516C289.04 516 285.08 516 281 516C281 507.09 281 498.18 281 489C277.37 489 273.74 489 270 489C270 476.46 270 463.92 270 451C266.37 451 262.74 451 259 451C259 455.29 259 459.58 259 464C255.37 464 251.74 464 248 464C248 467.96 248 471.92 248 476C244.04 476 240.08 476 236 476C236 480.29 236 484.58 236 489C232.37 489 228.74 489 225 489C225 492.96 225 496.92 225 501C221.04 501 217.08 501 213 501C213 483.84 213 466.68 213 449C216.63 449 220.26 449 224 449C224 445.37 224 441.74 224 438C227.96 438 231.92 438 236 438C236 434.37 236 430.74 236 427C226.76 427 217.52 427 208 427C208 431.29 208 435.58 208 440C204.04 440 200.08 440 196 440C196 431.09 196 422.18 196 413C199.96 413 203.92 413 208 413C208 409.37 208 405.74 208 402C211.96 402 215.92 402 220 402C220 398.04 220 394.08 220 390C223.63 390 227.26 390 231 390C231 386.04 231 382.08 231 378C223.08 378 215.16 378 207 378C207 381.96 207 385.92 207 390C203.37 390 199.74 390 196 390C196 385.71 196 381.42 196 377C199.3 377 202.6 377 206 377C206 373.37 206 369.74 206 366C198.41 366 190.82 366 183 366C183 361.38 183 356.76 183 352C195.21 352 207.42 352 220 352C220 347.38 220 342.76 220 338C227.59 338 235.18 338 243 338C243 333.05 243 328.1 243 323C246.63 323 250.26 323 254 323C254 318.05 254 313.1 254 308C257.63 308 261.26 308 265 308C265 304.04 265 300.08 265 296C268.63 296 272.26 296 276 296C276 292.37 276 288.74 276 285C279.3 285 282.6 285 286 285C286 272.46 286 259.92 286 247C289.63 247 293.26 247 297 247C297 254.26 297 261.52 297 269C300.63 269 304.26 269 308 269C308 261.74 308 254.48 308 247C304.7 247 301.4 247 298 247C298 240.73 298 234.46 298 228C294.37 228 290.74 228 287 228C287 220.74 287 213.48 287 206C283.37 206 279.74 206 276 206C275.505 193.625 275.505 193.625 275 181C271.7 180.67 268.4 180.34 265 180C264.67 176.7 264.34 173.4 264 170C260.7 169.67 257.4 169.34 254 169C254 161.74 254 154.48 254 147C257.63 147 261.26 147 265 147C265 154.26 265 161.52 265 169C268.96 169 272.92 169 277 169C277 171.64 277 174.28 277 177C281.29 177 285.58 177 290 177C290 173.04 290 169.08 290 165C293.63 165 297.26 165 301 165C301 160.71 301 156.42 301 152C304.96 152 308.92 152 313 152C313 139.13 313 126.26 313 113C323.56 113 334.12 113 345 113C345 109.37 345 105.74 345 102Z" fill="#222222"/>
<path d="M211.5 58C217.11 58 222.72 58 228.5 58C228.5 61.96 228.5 65.92 228.5 70C232.46 70 236.42 70 240.5 70C240.5 73.63 240.5 77.26 240.5 81C244.79 81 249.08 81 253.5 81C253.5 77.37 253.5 73.74 253.5 70C263.4 70 273.3 70 283.5 70C283.5 66.04 283.5 62.08 283.5 58C303.3 58 323.1 58 343.5 58C343.5 61.63 343.5 65.26 343.5 69C346.192 68.9691 346.192 68.9691 348.938 68.9375C350.792 68.9162 352.647 68.9277 354.5 69C355.5 70 355.5 70 355.598 72.5039C355.565 75.3359 355.533 78.168 355.5 81C351.54 81 347.58 81 343.5 81C343.5 84.3 343.5 87.6 343.5 91C333.27 91 323.04 91 312.5 91C312.5 93.64 312.5 96.28 312.5 99C307.88 99 303.26 99 298.5 99C298.5 102.96 298.5 106.92 298.5 111C293.88 111 289.26 111 284.5 111C284.5 114.3 284.5 117.6 284.5 121C279.55 121 274.6 121 269.5 121C269.5 124.96 269.5 128.92 269.5 133C264.55 133 259.6 133 254.5 133C254.5 129.04 254.5 125.08 254.5 121C259.12 121 263.74 121 268.5 121C268.5 117.37 268.5 113.74 268.5 110C273.45 110 278.4 110 283.5 110C283.5 106.7 283.5 103.4 283.5 100C273.93 100 264.36 100 254.5 100C254.5 106.6 254.5 113.2 254.5 120C250.21 120 245.92 120 241.5 120C241.5 116.7 241.5 113.4 241.5 110C237.21 110 232.92 110 228.5 110C228.5 113.5 228.5 117.5 228.5 121C232 121 237 121 240.5 121C240.5 124.96 240.5 128.92 240.5 133C242.459 132.979 244.419 132.959 246.438 132.938C248.458 132.916 250.48 132.928 252.5 133C253.5 134 253.5 134 253.598 136.285C253.565 138.857 253.533 141.428 253.5 144C249.54 144 246.08 144 242 144C242.012 145.577 241.988 147.376 242 149C242.009 151.053 241.991 152.947 242 155C242.008 156.041 241.991 156.928 242 158C242.003 158.989 241.997 159.981 242 161C242.005 161.916 241.995 163.056 242 164C241.886 166.133 242 166 242 167C238.5 167 232.673 167.042 229 167C229 163.5 229 159 229 155C226.5 155 223.5 155 220.5 155C220.5 151.37 220.5 147.74 220.5 144C223.47 144 226.44 144 229.5 144C229.5 140.37 229.5 136.74 229.5 133C226.2 133 222.9 133 219.5 133C219.5 136.63 219.5 140.26 219.5 144C215.54 144 211.58 144 207.5 144C207.5 147.96 207.5 151.92 207.5 156C211.46 156 215.42 156 219.5 156C219.5 159.96 219.5 163.92 219.5 168C215.87 168 212.24 168 208.5 168C208.5 171.63 208.5 175.26 208.5 179C200.58 179 192.66 179 184.5 179C184.5 186.26 184.5 193.52 184.5 201C180.87 201 177.24 201 173.5 201C173.5 207.93 173.5 214.86 173.5 222C169.54 222 165.58 222 161.5 222C161.5 227.28 161.5 232.56 161.5 238C157.54 238 153.58 238 149.5 238C149.5 242.29 149.5 246.58 149.5 251C145.54 251 141.58 251 137.5 251C137.5 259.58 137.5 268.16 137.5 277C133.54 277 129.58 277 125.5 277C125.5 285.25 125.5 293.5 125.5 302C121.54 302 117.58 302 113.5 302C113.5 309.26 113.5 316.52 113.5 324C109.87 324 106.24 324 102.5 324C102.5 331.92 102.5 339.84 102.5 348C98.54 348 94.58 348 90.5 348C90.5 356.25 90.5 364.5 90.5 373C86.87 373 83.24 373 79.5 373C79.5 377.95 79.5 382.9 79.5 388C75.54 388 71.58 388 67.5 388C67.5 366.55 67.5 345.1 67.5 323C71.13 323 74.76 323 78.5 323C78.5 307.49 78.5 291.98 78.5 276C82.46 276 86.42 276 90.5 276C90.5 267.42 90.5 258.84 90.5 250C94.46 250 98.42 250 102.5 250C102.5 258.91 102.5 267.82 102.5 277C98.87 277 95.24 277 91.5 277C91.5 292.18 91.5 307.36 91.5 323C94.8 323 98.1 323 101.5 323C101.5 315.74 101.5 308.48 101.5 301C105.46 301 109.42 301 113.5 301C113.5 293.08 113.5 285.16 113.5 277C117.13 277 120.76 277 124.5 277C124.5 268.09 124.5 259.18 124.5 250C128.46 250 132.42 250 136.5 250C136.5 246.37 136.5 242.74 136.5 239C132.87 239 129.24 239 125.5 239C125.5 233.39 125.5 227.78 125.5 222C121.87 222 118.24 222 114.5 222C114.5 214.74 114.5 207.48 114.5 200C118.13 200 121.76 200 125.5 200C125.5 192.08 125.5 184.16 125.5 176C129.46 176 133.42 176 137.5 176C137.5 168.41 137.5 160.82 137.5 153C141.13 153 144.76 153 148.5 153C148.5 146.4 148.5 139.8 148.5 133C152.46 133 156.42 133 160.5 133C160.5 129.04 160.5 125.08 160.5 121C164.46 121 168.42 121 172.5 121C172.5 117.37 172.5 113.74 172.5 110C176.79 110 181.08 110 185.5 110C185.5 106.04 185.5 102.08 185.5 98C189.79 98 194.08 98 198.5 98C198.488 95.9904 198.477 93.9807 198.465 91.9102C198.458 89.9708 198.451 88.0314 198.445 86.092C198.44 84.7408 198.433 83.3896 198.425 82.0383C198.412 80.0998 198.407 78.1612 198.402 76.2227C198.397 75.0548 198.392 73.887 198.386 72.6838C198.5 70 198.5 70 199.5 69C201.52 68.9276 203.542 68.9162 205.562 68.9375C206.667 68.9465 207.772 68.9555 208.91 68.9648C209.765 68.9764 210.619 68.988 211.5 69C211.5 65.37 211.5 61.74 211.5 58Z" fill="#242424"/>
<path d="M149 135C149.33 135 149.66 135 150 135C150 141.93 150 148.86 150 156C146.37 156 142.74 156 139 156C139 163.26 139 170.52 139 178C142.3 178 145.6 178 149 178C149 171.07 149 164.14 149 157C152.63 157 156.26 157 160 157C160.027 160.479 160.047 163.958 160.062 167.438C160.071 168.431 160.079 169.424 160.088 170.447C160.091 171.392 160.094 172.336 160.098 173.309C160.103 174.183 160.108 175.058 160.114 175.959C160 178 160 178 159 179C156.03 179 153.06 179 150 179C150 186.59 150 194.18 150 202C153.96 202 157.92 202 162 202C162 198.37 162 194.74 162 191C165.96 191 169.92 191 174 191C174 194.63 174 198.26 174 202C177.3 202 180.6 202 184 202C184 195.07 184 188.14 184 181C180.37 181 176.74 181 173 181C173 177.04 173 173.08 173 169C176.63 169 180.26 169 184 169C184 165.37 184 161.74 184 158C195.88 158 207.76 158 220 158C220 161.96 220 165.92 220 170C216.37 170 212.74 170 209 170C209 173.63 209 177.26 209 181C201.08 181 193.16 181 185 181C185 188.26 185 195.52 185 203C181.37 203 177.74 203 174 203C174 209.93 174 216.86 174 224C170.04 224 166.08 224 162 224C162 229.28 162 234.56 162 240C158.04 240 154.08 240 150 240C150 244.29 150 248.58 150 253C146.04 253 142.08 253 138 253C138 261.58 138 270.16 138 279C134.04 279 130.08 279 126 279C126 287.25 126 295.5 126 304C122.04 304 118.08 304 114 304C114 311.26 114 318.52 114 326C110.37 326 106.74 326 103 326C103 333.92 103 341.84 103 350C99.04 350 95.08 350 91 350C91 358.25 91 366.5 91 375C87.37 375 83.74 375 80 375C80 379.95 80 384.9 80 390C76.04 390 72.08 390 68 390C68 368.55 68 347.1 68 325C71.63 325 75.26 325 79 325C79 309.49 79 293.98 79 278C82.96 278 86.92 278 91 278C91 269.42 91 260.84 91 252C94.96 252 98.92 252 103 252C103 260.91 103 269.82 103 279C99.37 279 95.74 279 92 279C92 294.18 92 309.36 92 325C95.3 325 98.6 325 102 325C102 317.74 102 310.48 102 303C105.96 303 109.92 303 114 303C114 295.08 114 287.16 114 279C117.63 279 121.26 279 125 279C125 270.09 125 261.18 125 252C128.96 252 132.92 252 137 252C137 248.37 137 244.74 137 241C133.37 241 129.74 241 126 241C126 235.39 126 229.78 126 224C122.37 224 118.74 224 115 224C115 216.74 115 209.48 115 202C118.63 202 122.26 202 126 202C126 194.08 126 186.16 126 178C129.96 178 133.92 178 138 178C138 170.41 138 162.82 138 155C141.63 155 145.26 155 149 155C149 148.4 149 141.8 149 135Z" fill="#212121"/>
<path d="M351 161C372.45 161 393.9 161 416 161C416 164.96 416 168.92 416 173C419.96 173 423.92 173 428 173C428 176.96 428 180.92 428 185C431.63 185 435.26 185 439 185C439 199.85 439 214.7 439 230C432.4 230 425.8 230 419 230C419 220.1 419 210.2 419 200C414.71 200 410.42 200 406 200C406 195.38 406 190.76 406 186C401.38 186 396.76 186 392 186C392 196.89 392 207.78 392 219C395.96 219 399.92 219 404 219C404 222.96 404 226.92 404 231C408.29 231 412.58 231 417 231C417 234.96 417 238.92 417 243C413.04 243 409.08 243 405 243C405 246.96 405 250.92 405 255C392.13 255 379.26 255 366 255C366 250.71 366 246.42 366 242C361.71 242 357.42 242 353 242C353 238.37 353 234.74 353 231C357.29 231 361.58 231 366 231C366 227.04 366 223.08 366 219C370.62 219 375.24 219 380 219C380 208.11 380 197.22 380 186C374.72 186 369.44 186 364 186C364 190.29 364 194.58 364 199C359.71 199 355.42 199 351 199C351 209.56 351 220.12 351 231C343.41 231 335.82 231 328 231C328 216.48 328 201.96 328 187C331.96 187 335.92 187 340 187C340 183.04 340 179.08 340 175C343.63 175 347.26 175 351 175C351 170.38 351 165.76 351 161Z" fill="#F9F9F9"/>
<path d="M91 252C94.96 252 98.92 252 103 252C103 260.91 103 269.82 103 279C99.37 279 95.74 279 92 279C92 294.18 92 309.36 92 325C95.3 325 98.6 325 102 325C102 317.74 102 310.48 102 303C105.96 303 109.92 303 114 303C114 295.08 114 287.16 114 279C117.63 279 121.26 279 125 279C125 287.25 125 295.5 125 304C121.37 304 117.74 304 114 304C114 311.26 114 318.52 114 326C110.37 326 106.74 326 103 326C103 333.92 103 341.84 103 350C99.04 350 95.08 350 91 350C91 358.25 91 366.5 91 375C87.37 375 83.74 375 80 375C80 379.95 80 384.9 80 390C76.04 390 72.08 390 68 390C68 368.55 68 347.1 68 325C71.63 325 75.26 325 79 325C79 309.49 79 293.98 79 278C82.96 278 86.92 278 91 278C91 269.42 91 260.84 91 252Z" fill="#222222"/>
<path d="M360 366C363.63 366 367.26 366 371 366C371 370.62 371 375.24 371 380C374.96 380 378.92 380 383 380C383 387.26 383 394.52 383 402C386.63 402 390.26 402 394 402C394 409.92 394 417.84 394 426C398.62 425.67 403.24 425.34 408 425C408.33 421.04 408.66 417.08 409 413C412.96 413 416.92 413 421 413C421 409.37 421 405.74 421 402C424.96 402 428.92 402 433 402C433 405.96 433 409.92 433 414C436.63 414 440.26 414 444 414C444 425.88 444 437.76 444 450C440.7 450 437.4 450 434 450C434 441.42 434 432.84 434 424C428.72 424 423.44 424 418 424C418 424.99 418 425.98 418 427C419.299 427.124 420.599 427.248 421.938 427.375C424.152 427.586 424.152 427.586 426 428C427.478 430.957 427.06 433.742 427 437C424.69 437 422.38 437 420 437C420 440.63 420 444.26 420 448C416.37 448 412.74 448 409 448C408.805 445.461 408.609 442.922 408.414 440.383C408.204 437.821 408.204 437.821 406 436C403.108 435.536 403.108 435.536 399.875 435.375C398.779 435.3 397.684 435.225 396.555 435.148C395.29 435.075 395.29 435.075 394 435C394 437.64 394 440.28 394 443C390.37 443 386.74 443 383 443C383 440.36 383 437.72 383 435C382.01 435 381.02 435 380 435C380.495 433.515 380.495 433.515 381 432C380.34 431.34 379.68 430.68 379 430C380.32 429.01 381.64 428.02 383 427C382.505 426.505 382.505 426.505 382 426C381.927 423.47 381.908 420.967 381.938 418.438C381.942 417.727 381.947 417.016 381.951 416.283C381.963 414.522 381.981 412.761 382 411C378.37 411 374.74 411 371 411C371 402.75 371 394.5 371 386C367.37 386 363.74 386 360 386C360 379.4 360 372.8 360 366ZM416 427C416.33 427.66 416.66 428.32 417 429C417.33 428.34 417.66 427.68 418 427C417.34 427 416.68 427 416 427Z" fill="#222222"/>
<path d="M103 224C110.59 224 118.18 224 126 224C126 229.61 126 235.22 126 241C129.63 241 133.26 241 137 241C137 244.63 137 248.26 137 252C133.04 252 129.08 252 125 252C125 260.91 125 269.82 125 279C121.37 279 117.74 279 114 279C114 286.92 114 294.84 114 303C110.04 303 106.08 303 102 303C102 310.26 102 317.52 102 325C98.7 325 95.4 325 92 325C92 309.82 92 294.64 92 279C95.63 279 99.26 279 103 279C103 260.85 103 242.7 103 224Z" fill="#FBFBFB"/>
<path d="M184 158C195.88 158 207.76 158 220 158C220 161.96 220 165.92 220 170C216.37 170 212.74 170 209 170C209 173.63 209 177.26 209 181C201.08 181 193.16 181 185 181C185 188.26 185 195.52 185 203C181.37 203 177.74 203 174 203C174 209.93 174 216.86 174 224C166.08 224 158.16 224 150 224C150 216.74 150 209.48 150 202C153.96 202 157.92 202 162 202C162 198.37 162 194.74 162 191C165.96 191 169.92 191 174 191C174 194.63 174 198.26 174 202C177.3 202 180.6 202 184 202C184 195.07 184 188.14 184 181C180.37 181 176.74 181 173 181C173 177.04 173 173.08 173 169C176.63 169 180.26 169 184 169C184 165.37 184 161.74 184 158Z" fill="#FAFAFA"/>
<path d="M305 334C308.3 334 311.6 334 315 334C315 339.94 315 345.88 315 352C318.63 352 322.26 352 326 352C326 355.3 326 358.6 326 362C329.3 362 332.6 362 336 362C336 365.3 336 368.6 336 372C332.37 372 328.74 372 325 372C325 375.63 325 379.26 325 383C320.38 383 315.76 383 311 383C311 396.2 311 409.4 311 423C307.37 423 303.74 423 300 423C300 399.57 300 376.14 300 352C301.65 352 303.3 352 305 352C305 346.06 305 340.12 305 334Z" fill="#FAFAFA"/>
<path d="M308 270C311.63 270 315.26 270 319 270C319 274.95 319 279.9 319 285C322.3 285 325.6 285 329 285C329 293.91 329 302.82 329 312C331.31 312 333.62 312 336 312C336 307.71 336 303.42 336 299C338.97 299 341.94 299 345 299C345 303.29 345 307.58 345 312C348.3 312 351.6 312 355 312C355 315.96 355 319.92 355 324C351.7 324 348.4 324 345 324C345 326.97 345 329.94 345 333C342.03 333 339.06 333 336 333C336 337.62 336 342.24 336 347C332.7 347 329.4 347 326 347C325.973 344.354 325.953 341.708 325.938 339.062C325.929 338.308 325.921 337.553 325.912 336.775C325.903 334.85 325.948 332.925 326 331C327 330 327 330 328.848 329.902C330.898 329.935 332.949 329.967 335 330C335 328.02 335 326.04 335 324C332.36 324 329.72 324 327 324C327 320.37 327 316.74 327 313C323.7 313 320.4 313 317 313C317 305.41 317 297.82 317 290C314.03 290 311.06 290 308 290C308 283.4 308 276.8 308 270Z" fill="#222222"/>
<path d="M68 325C71.96 325 75.92 325 80 325C80 333.25 80 341.5 80 350C83.63 350 87.26 350 91 350C91 358.25 91 366.5 91 375C87.37 375 83.74 375 80 375C80 379.95 80 384.9 80 390C76.04 390 72.08 390 68 390C68 368.55 68 347.1 68 325Z" fill="#262626"/>
<path d="M265 181C268.63 181 272.26 181 276 181C276 189.25 276 197.5 276 206C279.63 206 283.26 206 287 206C287 213.26 287 220.52 287 228C290.63 228 294.26 228 298 228C298 234.27 298 240.54 298 247C301.3 247 304.6 247 308 247C308 254.26 308 261.52 308 269C304.37 269 300.74 269 297 269C297 261.74 297 254.48 297 247C293.37 247 289.74 247 286 247C286 240.73 286 234.46 286 228C283.556 228.031 283.556 228.031 281.062 228.062C279.375 228.084 276.706 228.062 275 228.062C275 227 275 227.5 275 225.5C275.005 224.625 274.995 223.401 275 222.5C275.003 221.556 274.909 220.42 274.912 219.447C274.92 218.454 274.929 217.461 274.938 216.438C274.942 215.44 274.947 214.443 274.951 213.416C274.963 210.944 274.981 208.472 275 206C271.7 206 268.4 206 265 206C265 197.75 265 189.5 265 181Z" fill="#FEFEFE"/>
<path d="M496 562C499.96 562.33 503.92 562.66 508 563C508 572.57 508 582.14 508 592C511.63 592 515.26 592 519 592C519 595.3 519 598.6 519 602C522.63 602 526.26 602 530 602C530 614.54 530 627.08 530 640C522.41 640 514.82 640 507 640C507 636.37 507 632.74 507 629C507.33 629 507.66 629 508 629C508 632.3 508 635.6 508 639C514.93 639 521.86 639 529 639C529 627.12 529 615.24 529 603C525.7 603 522.4 603 519 603C519 611.25 519 619.5 519 628C515.37 628 511.74 628 508 628C508 619.75 508 611.5 508 603C504.37 603 500.74 603 497 603C496 602 496 602 495.886 598.215C495.887 596.527 495.892 594.84 495.902 593.152C495.904 592.266 495.905 591.379 495.907 590.466C495.912 587.623 495.925 584.78 495.938 581.938C495.943 580.015 495.947 578.092 495.951 576.17C495.962 571.447 495.979 566.723 496 562Z" fill="#222222"/>
<path d="M456 525C459.63 525 463.26 525 467 525C467 533.91 467 542.82 467 552C473.6 552 480.2 552 487 552C487 544.74 487 537.48 487 530C487.33 530 487.66 530 488 530C488 537.26 488 544.52 488 552C490.97 552 493.94 552 497 552C496.67 565.2 496.34 578.4 496 592C492.7 592 489.4 592 486 592C486 582.43 486 572.86 486 563C479.73 563 473.46 563 467 563C467 559.7 467 556.4 467 553C463.37 553 459.74 553 456 553C456 543.76 456 534.52 456 525Z" fill="#222222"/>
<path d="M360 366C363.63 366 367.26 366 371 366C371 370.62 371 375.24 371 380C374.96 380 378.92 380 383 380C383 387.26 383 394.52 383 402C386.63 402 390.26 402 394 402C394 409.92 394 417.84 394 426C390.04 426 386.08 426 382 426C382 421.05 382 416.1 382 411C378.37 411 374.74 411 371 411C371 402.75 371 394.5 371 386C367.37 386 363.74 386 360 386C360 379.4 360 372.8 360 366Z" fill="#F0F0F0"/>
<path d="M284.5 89C289.12 89 293.74 89 298.5 89C298.5 96.92 298.5 104.84 298.5 113C293.88 113 289.26 113 284.5 113C284.5 116.3 284.5 119.6 284.5 123C279.55 123 274.6 123 269.5 123C269.5 126.96 269.5 130.92 269.5 135C264.55 135 259.6 135 254.5 135C254.5 131.04 254.5 127.08 254.5 123C259.12 123 263.74 123 268.5 123C268.5 119.37 268.5 115.74 268.5 112C273.45 112 278.4 112 283.5 112C283.5 108.7 283.5 105.4 283.5 102C273.93 102 263.86 102 254 102C254 101.67 254.5 101.34 254.5 101C264.4 101 274.3 101 284.5 101C284.5 97.04 284.5 93.08 284.5 89Z" fill="#272727"/>
<path d="M422 402C425.63 402 429.26 402 433 402C433 405.96 433 409.92 433 414C436.63 414 440.26 414 444 414C444 425.88 444 437.76 444 450C441.36 450 438.72 450 436 450C435 449 435 449 434.886 446.5C434.892 445.416 434.897 444.332 434.902 443.215C434.906 442.045 434.909 440.875 434.912 439.67C434.92 438.438 434.929 437.207 434.938 435.938C434.942 434.702 434.947 433.466 434.951 432.193C434.963 429.129 434.981 426.064 435 423C426.75 423 418.5 423 410 423C410 420.03 410 417.06 410 414C413.96 414 417.92 414 422 414C422 410.04 422 406.08 422 402Z" fill="#FBFBFB"/>
<path d="M308 270C311.63 270 315.26 270 319 270C319 274.95 319 279.9 319 285C322.3 285 325.6 285 329 285C329 293.91 329 302.82 329 312C331.31 312 333.62 312 336 312C336 315.63 336 319.26 336 323C333.36 323 330.72 323 328 323C328 319.37 328 315.74 328 312C324.7 312 321.4 312 318 312C318 304.41 318 296.82 318 289C314.7 289 311.4 289 308 289C308 282.73 308 276.46 308 270Z" fill="#F7F7F7"/>
<path d="M80 279C83.63 279 87.26 279 91 279C91 294.18 91 309.36 91 325C87.37 325 83.74 325 80 325C80 309.82 80 294.64 80 279Z" fill="#212121"/>
<path d="M519 603C522.3 603 525.6 603 529 603C529 614.88 529 626.76 529 639C522.07 639 515.14 639 508 639C508 635.7 508 632.4 508 629C511.3 628.67 514.6 628.34 518 628C518.33 619.75 518.66 611.5 519 603Z" fill="#202020"/>
<path d="M264 206C267.63 206 271.26 206 275 206C275 213 275 218 275 228C278.324 228 282.5 228 286 228C286 234.27 286 240.54 286 247C282.37 247 278.74 247 275 247C275 240.73 275 234.46 275 228C271.37 228 267.74 228 264 228C264 220.74 264 213.48 264 206Z" fill="#222222"/>
<path d="M220 135C223.3 135 226.6 135 230 135C230 138.63 230 142.26 230 146C227.03 146 224.06 146 221 146C221 149.63 221 153.26 221 157C223.64 157 226.28 157 229 157C229.027 159.813 229.047 162.625 229.062 165.438C229.071 166.24 229.079 167.042 229.088 167.869C229.097 169.913 229.052 171.957 229 174C228 175 228 175 226.152 175.098C224.102 175.065 222.051 175.033 220 175C220 173.68 220 172.36 220 171C216.37 171 212.74 171 209 171C209 170.67 209 170.34 209 170C212.63 170 216.26 170 220 170C220 166.04 220 162.08 220 158C216.04 158 212.08 158 208 158C208 154.04 208 150.08 208 146C211.96 146 215.92 146 220 146C220 142.37 220 138.74 220 135Z" fill="#F9F9F9"/>
<path d="M469 526C469.99 526.33 470.98 526.66 472 527C472 527.99 472 528.98 472 530C476.95 530 481.9 530 487 530C487 537.26 487 544.52 487 552C480.73 552 474.46 552 468 552C467.973 547.854 467.953 543.708 467.938 539.562C467.929 538.378 467.921 537.194 467.912 535.975C467.909 534.85 467.906 533.725 467.902 532.566C467.897 531.524 467.892 530.482 467.886 529.408C468 527 468 527 469 526Z" fill="#212121"/>
<path d="M366 284C378.87 284 391.74 284 405 284C405 287.63 405 291.26 405 295C392.13 295 379.26 295 366 295C366 291.37 366 287.74 366 284Z" fill="#F6F6F6"/>
<path d="M208 158C211.96 158 215.92 158 220 158C220 161.96 220 165.92 220 170C216.04 170 212.08 170 208 170C208 173.3 208 176.6 208 180C200.41 180 192.82 180 185 180C185 176.37 185 172.74 185 169C192.59 169 200.18 169 208 169C208 165.37 208 161.74 208 158Z" fill="#232323"/>
<path d="M161 123C164.96 123 168.92 123 173 123C173 126.96 173 130.92 173 135C169.37 135.33 165.74 135.66 162 136C161.67 142.6 161.34 149.2 161 156C157.37 156 153.74 156 150 156C150 149.07 150 142.14 150 135C153.63 135 157.26 135 161 135C161 131.04 161 127.08 161 123Z" fill="#232323"/>
<path d="M309 72C320.22 72 331.44 72 343 72C343 75.3 343 78.6 343 82C331.78 82 320.56 82 309 82C309 78.7 309 75.4 309 72Z" fill="#FDFDFD"/>
<path d="M103 224C106.96 224 110.92 224 115 224C115 233.24 115 242.48 115 252C111.04 252 107.08 252 103 252C103 242.76 103 233.52 103 224Z" fill="#292929"/>
<path d="M389.078 425.609C390.238 425.622 391.398 425.635 392.594 425.648C393.8 425.682 395.007 425.715 396.25 425.75C398.083 425.777 398.083 425.777 399.953 425.805C402.97 425.852 405.984 425.918 409 426C409 428.64 409 431.28 409 434C404.05 434 399.1 434 394 434C394 436.97 394 439.94 394 443C390.37 443 386.74 443 383 443C383 440.36 383 437.72 383 435C382.01 435 381.02 435 380 435C380.33 434.01 380.66 433.02 381 432C380.34 431.34 379.68 430.68 379 430C382.19 426.11 384.099 425.512 389.078 425.609Z" fill="#222222"/>
<path d="M350 330C351.32 330 352.64 330 354 330C354.33 330.99 354.66 331.98 355 333C358.512 334.23 358.512 334.23 362 335C362 336.32 362 337.64 362 339C362.99 340.485 362.99 340.485 364 342C363.34 343.32 362.68 344.64 362 346C360.68 345.67 359.36 345.34 358 345C358 345.33 358 345.66 358 346C359.65 346.33 361.3 346.66 363 347C360.333 348.333 357.667 349.667 355 351C355 352.32 355 353.64 355 355C355 355.99 355 356.98 355 358C355.66 358.33 356.32 358.66 357 359C355.02 359 353.04 359 351 359C351 357.68 351 356.36 351 355C350.34 355 349.68 355 349 355C349.33 354.34 349.66 353.68 350 353C349.67 352.67 349.34 352.34 349 352C348.638 350.674 348.303 349.341 348 348C348 348.66 348 349.32 348 350C347.34 350 346.68 350 346 350C345.67 349.34 345.34 348.68 345 348C342.673 347.626 340.339 347.292 338 347C336.122 345.122 336.609 341.961 336.438 339.438C336.354 338.24 336.27 337.042 336.184 335.809C336.123 334.882 336.062 333.955 336 333C339.3 333 342.6 333 346 333C345.67 337.29 345.34 341.58 345 346C348.3 346 351.6 346 355 346C355 342.37 355 338.74 355 335C352.36 335 349.72 335 347 335C348.875 331.125 348.875 331.125 350 330Z" fill="#202020"/>
<path d="M456 525C459.63 525 463.26 525 467 525C467 533.91 467 542.82 467 552C463.37 552 459.74 552 456 552C456 543.09 456 534.18 456 525Z" fill="#F7F7F7"/>
<path d="M486 563C489.3 563 492.6 563 496 563C496 572.57 496 582.14 496 592C492.7 592 489.4 592 486 592C486 582.43 486 572.86 486 563Z" fill="#F6F6F6"/>
<path d="M126 253C129.63 253 133.26 253 137 253C137 261.58 137 270.16 137 279C133.37 279 129.74 279 126 279C126 270.42 126 261.84 126 253Z" fill="#212121"/>
<path d="M343 60C343.33 60 343.66 60 344 60C344 63.63 344 67.26 344 71C346.692 70.9691 346.692 70.9691 349.438 70.9375C351.292 70.9162 353.147 70.9277 355 71C356 72 356 72 356.098 74.5039C356.065 77.3359 356.033 80.168 356 83C352.04 83 348.08 83 344 83C344 86.3 344 89.6 344 93C333.77 93 323.54 93 313 93C313 92.67 313 92.34 313 92C322.9 92 332.8 92 343 92C343 89.03 343 86.06 343 83C331.45 83 319.9 83 308 83C308 79.04 308 75.08 308 71C319.55 71 331.1 71 343 71C343 67.37 343 63.74 343 60ZM309 72C309 75.3 309 78.6 309 82C320.22 82 331.44 82 343 82C343 78.7 343 75.4 343 72C331.78 72 320.56 72 309 72Z" fill="#242424"/>
<path d="M497 564C500.3 564 503.6 564 507 564C507 573.24 507 582.48 507 592C503.7 592 500.4 592 497 592C497 582.76 497 573.52 497 564Z" fill="#212121"/>
<path d="M114 279C117.63 279 121.26 279 125 279C125 287.25 125 295.5 125 304C121.37 304 117.74 304 114 304C114 295.75 114 287.5 114 279Z" fill="#242424"/>
<path d="M92 253C95.63 253 99.26 253 103 253C103 261.25 103 269.5 103 278C99.37 278 95.74 278 92 278C92 269.75 92 261.5 92 253Z" fill="#222222"/>
<path d="M445 502C448.63 502 452.26 502 456 502C456 509.59 456 517.18 456 525C452.37 525 448.74 525 445 525C445 517.41 445 509.82 445 502Z" fill="#F7F7F7"/>
<path d="M91 326C94.63 326 98.26 326 102 326C102 333.59 102 341.18 102 349C98.37 349 94.74 349 91 349C91 341.41 91 333.82 91 326Z" fill="#202020"/>
<path d="M127 179C130.63 179 134.26 179 138 179C138 186.59 138 194.18 138 202C134.37 202 130.74 202 127 202C127 194.41 127 186.82 127 179Z" fill="#212121"/>
<path d="M150 203C153.96 203 157.92 203 162 203C162 209.93 162 216.86 162 224C158.04 224 154.08 224 150 224C150 217.07 150 210.14 150 203Z" fill="#F1F1F1"/>
<path d="M508 603C511.3 603 514.6 603 518 603C518 611.25 518 619.5 518 628C514.7 628 511.4 628 508 628C508 619.75 508 611.5 508 603Z" fill="#F9F9F9"/>
<path d="M265 181C268.3 181 271.6 181 275 181C275 189.25 275 197.5 275 206C271.7 206 268.4 206 265 206C265 197.75 265 189.5 265 181Z" fill="#FBFBFB"/>
<path d="M254 181C257.3 181 260.6 181 264 181C264 189.25 264 197.5 264 206C260.7 206 257.4 206 254 206C254 197.75 254 189.5 254 181Z" fill="#212121"/>
<path d="M434 480C437.63 480 441.26 480 445 480C445 487.26 445 494.52 445 502C441.37 502 437.74 502 434 502C434 494.74 434 487.48 434 480Z" fill="#F3F3F3"/>
<path d="M242 147C245.63 147 249.26 147 253 147C253 154.26 253 161.52 253 169C249.37 169 245.74 169 242 169C242 161.74 242 154.48 242 147Z" fill="#F9F9F9"/>
<path d="M150 202C150 208.93 150 215.86 150 223C146.04 223 142.08 223 138 223C138 216.4 138 209.8 138 203C148.875 202 148.875 202 150 202Z" fill="#242424"/>
<path d="M336 325C338.97 325 341.94 325 345 325C345 327.64 345 330.28 345 333C342.03 333 339.06 333 336 333C336 337.62 336 342.24 336 347C332.7 347 329.4 347 326 347C326 341.72 326 336.44 326 331C329.3 331 332.6 331 336 331C336 329.02 336 327.04 336 325Z" fill="#FDFDFD"/>
<path d="M312 424C315.63 424 319.26 424 323 424C323 430.93 323 437.86 323 445C319.37 445 315.74 445 312 445C312 438.07 312 431.14 312 424Z" fill="#FCFCFC"/>
<path d="M103 304C106.63 304 110.26 304 114 304C114 310.93 114 317.86 114 325C110.37 325 106.74 325 103 325C103 318.07 103 311.14 103 304Z" fill="#212121"/>
<path d="M162 203C165.63 203 169.26 203 173 203C173 209.93 173 216.86 173 224C169.37 224 165.74 224 162 224C162 217.07 162 210.14 162 203Z" fill="#202020"/>
<path d="M115 203C118.63 203 122.26 203 126 203C126 209.93 126 216.86 126 224C122.37 224 118.74 224 115 224C115 217.07 115 210.14 115 203Z" fill="#202020"/>
<path d="M80 326C83.3 326 86.6 326 90 326C90 333.59 90 341.18 90 349C86.7 349 83.4 349 80 349C80 341.41 80 333.82 80 326Z" fill="#FCFCFC"/>
<path d="M139 179C142.3 179 145.6 179 149 179C149 186.59 149 194.18 149 202C145.7 202 142.4 202 139 202C139 194.41 139 186.82 139 179Z" fill="#FDFDFD"/>
<path d="M162 135C165.3 135 168.6 135 172 135C172 141.93 172 148.86 172 156C168.37 156 164.74 156 161 156C160.973 152.687 160.953 149.375 160.938 146.062C160.929 145.117 160.921 144.171 160.912 143.197C160.909 142.298 160.906 141.399 160.902 140.473C160.897 139.64 160.892 138.807 160.886 137.949C161 136 161 136 162 135Z" fill="#E2E2E2"/>
<path d="M188.133 157.886C189.049 157.892 189.966 157.897 190.91 157.902C191.9 157.906 192.889 157.909 193.908 157.912C194.949 157.92 195.99 157.929 197.062 157.938C198.63 157.944 198.63 157.944 200.229 157.951C202.819 157.963 205.41 157.981 208 158C208 161.3 208 164.6 208 168C200.41 168 192.82 168 185 168C185 158.053 185 158.053 188.133 157.886Z" fill="#FAFAFA"/>
<path d="M139 156C142.63 156 146.26 156 150 156C149.67 163.26 149.34 170.52 149 178C145.7 178 142.4 178 139 178C139 170.74 139 163.48 139 156Z" fill="#212121"/>
<path d="M174 181C177.3 181 180.6 181 184 181C184 187.93 184 194.86 184 202C180.7 202 177.4 202 174 202C174 197.667 174 193.333 174 189C172.278 185.752 172.278 185.752 169 185C169.33 184.01 169.66 183.02 170 182C170.99 182 171.98 182 173 182C173.33 181.67 173.66 181.34 174 181ZM166 185C169 186 169 186 169 186L166 185Z" fill="#202020"/>
<path d="M183 352C183.33 352 183.66 352 184 352C184 356.29 184 360.58 184 365C191.59 365 199.18 365 207 365C207 368.96 207 372.92 207 377C214.92 377 222.84 377 231 377C231 377.33 231 377.66 231 378C223.08 378 215.16 378 207 378C207 381.96 207 385.92 207 390C203.37 390 199.74 390 196 390C196 385.71 196 381.42 196 377C199.3 377 202.6 377 206 377C206 373.37 206 369.74 206 366C198.41 366 190.82 366 183 366C183 361.38 183 356.76 183 352Z" fill="#565656"/>
<path d="M127 203C130.3 203 133.6 203 137 203C137 209.93 137 216.86 137 224C133.7 224 130.4 224 127 224C127 217.07 127 210.14 127 203Z" fill="#FCFCFC"/>
<path d="M150 157C153.3 157 156.6 157 160 157C160 163.93 160 170.86 160 178C156.7 178 153.4 178 150 178C150 171.07 150 164.14 150 157Z" fill="#F6F6F6"/>
<path d="M276 207C279.3 207 282.6 207 286 207C286 213.6 286 220.2 286 227C282.7 227 279.4 227 276 227C276 220.4 276 213.8 276 207Z" fill="#FDFDFD"/>
<path d="M126 224C129.96 224 133.92 224 138 224C138 229.28 138 234.56 138 240C134.04 240 130.08 240 126 240C126 234.72 126 229.44 126 224Z" fill="#292929"/>
<path d="M150 224C153.96 224 157.92 224 162 224C162 229.28 162 234.56 162 240C158.04 240 154.08 240 150 240C150 234.72 150 229.44 150 224Z" fill="#252525"/>
<path d="M546 396C549.96 396 553.92 396 558 396C558 399.96 558 403.92 558 408C561.96 408 565.92 408 570 408C570 408.33 570 408.66 570 409C566.04 409 562.08 409 558 409C558 420.22 558 431.44 558 443C557.67 443 557.34 443 557 443C557 431.45 557 419.9 557 408C553.37 408 549.74 408 546 408C546 404.04 546 400.08 546 396Z" fill="#DFDFDF"/>
<path d="M417 255C420.63 255 424.26 255 428 255C428 260.61 428 266.22 428 272C424.37 272 420.74 272 417 272C417 266.39 417 260.78 417 255Z" fill="#E5E5E5"/>
<path d="M149 135C149.33 135 149.66 135 150 135C150 141.93 150 148.86 150 156C146.37 156 142.74 156 139 156C139 163.26 139 170.52 139 178C142.3 178 145.6 178 149 178C149 171.07 149 164.14 149 157C149.33 157 149.66 157 150 157C150 163.93 150 170.86 150 178C152.97 178 155.94 178 159 178C159 178.33 159 178.66 159 179C156.03 179 153.06 179 150 179C150 186.59 150 194.18 150 202C149.67 202 149.34 202 149 202C149 194.41 149 186.82 149 179C141.74 179 134.48 179 127 179C127 193.85 127 208.7 127 224C126.67 224 126.34 224 126 224C126 217.07 126 210.14 126 203C122.37 203 118.74 203 115 203C115 202.67 115 202.34 115 202C118.63 202 122.26 202 126 202C126 194.08 126 186.16 126 178C129.96 178 133.92 178 138 178C138 170.41 138 162.82 138 155C141.63 155 145.26 155 149 155C149 148.4 149 141.8 149 135Z" fill="#242424"/>
<path d="M468 553C473.94 553 479.88 553 486 553C486 556.3 486 559.6 486 563C480.06 563 474.12 563 468 563C468 559.7 468 556.4 468 553Z" fill="#FBFBFB"/>
<path d="M276 228C279.3 228 282.6 228 286 228C286 233.94 286 239.88 286 246C282.7 246 279.4 246 276 246C276 240.06 276 234.12 276 228Z" fill="#212121"/>
<path d="M287 228C290.3 228 293.6 228 297 228C297 233.94 297 239.88 297 246C293.7 246 290.4 246 287 246C287 240.06 287 234.12 287 228Z" fill="#FDFDFD"/>
<path d="M138 224C141.63 224 145.26 224 149 224C149 229.28 149 234.56 149 240C145.37 240 141.74 240 138 240C138 234.72 138 229.44 138 224Z" fill="#FBFBFB"/>
<path d="M342 255C345.3 255 348.6 255 352 255C352 260.61 352 266.22 352 272C348.7 272 345.4 272 342 272C342 266.39 342 260.78 342 255Z" fill="#F5F5F5"/>
<path d="M379 230C383.29 230 387.58 230 392 230C392 234.29 392 238.58 392 243C387.71 243 383.42 243 379 243C379 238.71 379 234.42 379 230Z" fill="#2C2C2C"/>
<path d="M255 123C259.62 123 264.24 123 269 123C269 126.96 269 130.92 269 135C264.38 135 259.76 135 255 135C255 131.04 255 127.08 255 123Z" fill="#202020"/>
<path d="M285 89C289.62 89 294.24 89 299 89C299 92.96 299 96.92 299 101C294.38 101 289.76 101 285 101C285 97.04 285 93.08 285 89Z" fill="#EDEDED"/>
<path d="M213 72C217.95 72 222.9 72 228 72C228 75.63 228 79.26 228 83C223.05 83 218.1 83 213 83C213 79.37 213 75.74 213 72Z" fill="#F9F9F9"/>
<path d="M173 123C182.277 122.902 182.277 122.902 185 123C186 124 186 124 186.098 126.504C186.065 129.336 186.033 132.168 186 135C181.71 135 177.42 135 173 135C173 131.04 173 127.08 173 123Z" fill="#E7E7E7"/>
<path d="M285 101C289.62 101 294.24 101 299 101C299 104.63 299 108.26 299 112C294.38 112 289.76 112 285 112C285 108.37 285 104.74 285 101Z" fill="#232323"/>
<path d="M213 61C217.95 61 222.9 61 228 61C228 64.3 228 67.6 228 71C223.05 71.33 218.1 71.66 213 72C213 68.37 213 64.74 213 61Z" fill="#202020"/>
<path d="M242 123C245.96 123 249.92 123 254 123C254 126.96 254 130.92 254 135C250.04 135 246.08 135 242 135C242 131.04 242 127.08 242 123Z" fill="#F6F6F6"/>
<path d="M173 112C177.29 112 181.58 112 186 112C186 115.96 186 119.92 186 124C181.71 123.67 177.42 123.34 173 123C173 119.37 173 115.74 173 112Z" fill="#242424"/>
<path d="M353 272C357.29 272 361.58 272 366 272C366 275.63 366 279.26 366 283C361.71 283 357.42 283 353 283C353 279.37 353 275.74 353 272Z" fill="#EBEBEB"/>
<path d="M328 243C332.29 243 336.58 243 341 243C341 246.63 341 250.26 341 254C336.71 254 332.42 254 328 254C328 250.37 328 246.74 328 243Z" fill="#FBFBFB"/>
<path d="M186 112C190.29 112 194.58 112 199 112C199 115.63 199 119.26 199 123C194.71 123 190.42 123 186 123C186 119.37 186 115.74 186 112Z" fill="#E8E8E8"/>
<path d="M483 449C486.96 449 490.92 449 495 449C495 452.63 495 456.26 495 460C491.04 460 487.08 460 483 460C483 456.37 483 452.74 483 449Z" fill="#EEEEEE"/>
<path d="M405 272C408.96 272 412.92 272 417 272C417 275.63 417 279.26 417 283C413.04 283 409.08 283 405 283C405 279.37 405 275.74 405 272Z" fill="#EAEAEA"/>
<path d="M409 437C412.63 437 416.26 437 420 437C420 440.63 420 444.26 420 448C416.37 448 412.74 448 409 448C409 444.37 409 440.74 409 437Z" fill="#E9E9E9"/>
<path d="M138 241C141.63 241 145.26 241 149 241C149 244.63 149 248.26 149 252C145.37 252 141.74 252 138 252C138 248.37 138 244.74 138 241Z" fill="#212121"/>
<path d="M423 468C426.3 468 429.6 468 433 468C433 471.96 433 475.92 433 480C429.7 480 426.4 480 423 480C423 476.04 423 472.08 423 468Z" fill="#FDFDFD"/>
<path d="M394 426C398.95 426 403.9 426 409 426C409 428.64 409 431.28 409 434C404.05 434 399.1 434 394 434C394 431.36 394 428.72 394 426Z" fill="#E9E9E9"/>
<path d="M208 147C211.96 147 215.92 147 220 147C220 150.3 220 153.6 220 157C216.04 157 212.08 157 208 157C208 153.7 208 150.4 208 147Z" fill="#F9F9F9"/>
<path d="M200 101C203.96 101 207.92 101 212 101C212 104.3 212 107.6 212 111C208.04 111 204.08 111 200 111C200 107.7 200 104.4 200 101Z" fill="#F5F5F5"/>
<path d="M336 299C338.97 299 341.94 299 345 299C345 303.29 345 307.58 345 312C342.03 312 339.06 312 336 312C336 307.71 336 303.42 336 299Z" fill="#E3E3E3"/>
<path d="M327 332C329.64 332 332.28 332 335 332C335 336.62 335 341.24 335 346C332.36 346 329.72 346 327 346C327 341.38 327 336.76 327 332Z" fill="#FDFDFD"/>
<path d="M237 415C240.3 415 243.6 415 247 415C247 418.63 247 422.26 247 426C243.7 426 240.4 426 237 426C237 422.37 237 418.74 237 415Z" fill="#FBFBFB"/>
<path d="M345 312C348.3 312 351.6 312 355 312C355 315.63 355 319.26 355 323C351.7 323 348.4 323 345 323C345 319.37 345 315.74 345 312Z" fill="#EFEFEF"/>
<path d="M429 243C432.3 243 435.6 243 439 243C439 246.63 439 250.26 439 254C435.7 254 432.4 254 429 254C429 250.37 429 246.74 429 243Z" fill="#F8F8F8"/>
<path d="M162 192C165.63 192 169.26 192 173 192C173 195.3 173 198.6 173 202C169.37 202 165.74 202 162 202C162 198.7 162 195.4 162 192Z" fill="#F9F9F9"/>
<path d="M242 170C245.63 170 249.26 170 253 170C253 173.3 253 176.6 253 180C249.37 180 245.74 180 242 180C242 176.7 242 173.4 242 170Z" fill="#202020"/>
<path d="M344 72C347.63 72 351.26 72 355 72C355 75.3 355 78.6 355 82C351.37 82 347.74 82 344 82C344 78.7 344 75.4 344 72Z" fill="#202020"/>
<path d="M508 592C511.3 592 514.6 592 518 592C518 595.3 518 598.6 518 602C514.7 602 511.4 602 508 602C508 598.7 508 595.4 508 592Z" fill="#202020"/>
<path d="M497 592C500.3 592 503.6 592 507 592C507 595.3 507 598.6 507 602C503.7 602 500.4 602 497 602C497 598.7 497 595.4 497 592Z" fill="#F9F9F9"/>
<path d="M345 336C348.3 336 351.6 336 355 336C355 339.3 355 342.6 355 346C351.7 346 348.4 346 345 346C345 342.7 345 339.4 345 336Z" fill="#E1E1E1"/>
<path d="M254 170C257.3 170 260.6 170 264 170C264 173.3 264 176.6 264 180C260.7 180 257.4 180 254 180C254 176.7 254 173.4 254 170Z" fill="#FDFDFD"/>
<path d="M174 170C177.3 170 180.6 170 184 170C184 173.3 184 176.6 184 180C180.7 180 177.4 180 174 180C174 176.7 174 173.4 174 170Z" fill="#FDFDFD"/>
<path d="M230 113C233.63 113 237.26 113 241 113C241 115.97 241 118.94 241 122C237.37 122 233.74 122 230 122C230 119.03 230 116.06 230 113Z" fill="#FBFBFB"/>
<path d="M254.5 100C264.4 100 274.8 100 285 100C285 103.63 285 107.26 285 111C289.62 111 294.24 111 299 111C299 111.33 299 111.66 299 112C294.38 112 289.76 112 285 112C285 115.3 285 118.6 285 122C284.67 122 284.34 122 284 122C284 118.7 284 115.4 284 112C279.38 112 274.76 112 270 112C270 114.97 270 117.94 270 121C269.67 121 269.34 121 269 121C269 117.7 269 114.4 269 111C273.95 111 278.9 111 284 111C284 107.7 284 104.4 284 101C274.43 101 264.36 101 254.5 101C254.5 100.67 254.5 100.34 254.5 100Z" fill="#242424"/>
<path d="M221 158C223.64 158 226.28 158 229 158C229 161.63 229 165.26 229 169C226.36 169 223.72 169 221 169C221 165.37 221 161.74 221 158Z" fill="#FBFBFB"/>
<path d="M311 383C311.33 383 311.66 383 312 383C312 396.2 312 409.4 312 423C315.63 423 319.26 423 323 423C323 423.33 323 423.66 323 424C319.37 424 315.74 424 312 424C312 430.93 312 437.86 312 445C311.67 445 311.34 445 311 445C311 438.07 311 431.14 311 424C307.37 424 303.74 424 300 424C300 423.67 300 423.34 300 423C303.63 423 307.26 423 311 423C311 409.8 311 396.6 311 383Z" fill="#777777"/>
<path d="M221 136C223.64 136 226.28 136 229 136C229 139.3 229 142.6 229 146C226.36 146 223.72 146 221 146C221 142.7 221 139.4 221 136Z" fill="#F9F9F9"/>
<path d="M201 378C202.98 378 204.96 378 207 378C207 381.96 207 385.92 207 390C204.69 389.67 202.38 389.34 200 389C199.67 387.35 199.34 385.7 199 384C199.99 383.67 200.98 383.34 202 383C202.33 382.34 202.66 381.68 203 381C201.68 380.67 200.36 380.34 199 380C199.66 380 200.32 380 201 380C201 379.34 201 378.68 201 378Z" fill="#202020"/>
<path d="M162 191C165.96 191 169.92 191 174 191C174 194.63 174 198.26 174 202C177.3 202 180.6 202 184 202C184 202.33 184 202.66 184 203C180.7 203 177.4 203 174 203C174 209.93 174 216.86 174 224C173.67 224 173.34 224 173 224C173 217.07 173 210.14 173 203C165.41 203 157.82 203 150 203C150 202.67 150 202.34 150 202C157.59 202 165.18 202 173 202C173 198.7 173 195.4 173 192C169.37 192 165.74 192 162 192C162 191.67 162 191.34 162 191Z" fill="#242424"/>
<path d="M570 359C573.96 359 577.92 359 582 359C582 359.33 582 359.66 582 360C578.37 360 574.74 360 571 360C571 363.96 571 367.92 571 372C564.565 372.495 564.565 372.495 558 373C558 373.33 558 373.66 558 374C553.38 374 548.76 374 544 374C544 373.01 544 372.02 544 371C552.58 371 561.16 371 570 371C570 367.04 570 363.08 570 359Z" fill="#C0C0C0"/>
<path d="M425 451C427.64 451 430.28 451 433 451C433 453.97 433 456.94 433 460C430.36 460 427.72 460 425 460C425 457.03 425 454.06 425 451Z" fill="#FBFBFB"/>
<path d="M336 348C338.97 348 341.94 348 345 348C345 350.64 345 353.28 345 356C342.03 356 339.06 356 336 356C336 353.36 336 350.72 336 348Z" fill="#EBEBEB"/>
<path d="M395 446C397.97 446 400.94 446 404 446C404.042 448.333 404.041 450.667 404 453C403 454 403 454 401.152 454.098C399.102 454.065 397.051 454.033 395 454C395 451.36 395 448.72 395 446Z" fill="#DADADA"/>
<path d="M383 436C386.3 436 389.6 436 393 436C393 438.31 393 440.62 393 443C389.7 443 386.4 443 383 443C383 440.69 383 438.38 383 436Z" fill="#FBFBFB"/>
<path d="M345 360C348.3 360 351.6 360 355 360C355 362.31 355 364.62 355 367C351.7 367 348.4 367 345 367C345 364.69 345 362.38 345 360Z" fill="#F4F4F4"/>
<path d="M341 243C341.33 243 341.66 243 342 243C342 246.63 342 250.26 342 254C345.63 254 349.26 254 353 254C353 259.94 353 265.88 353 272C352.67 272 352.34 272 352 272C352 266.39 352 260.78 352 255C348.7 255 345.4 255 342 255C342 260.61 342 266.22 342 272C341.67 272 341.34 272 341 272C341 266.39 341 260.78 341 255C336.71 255 332.42 255 328 255C328 254.67 328 254.34 328 254C332.29 254 336.58 254 341 254C341 250.37 341 246.74 341 243Z" fill="#5E5E5E"/>
<path d="M125 206C125.33 206 125.66 206 126 206C126 211.94 126 217.88 126 224C122.7 223.67 119.4 223.34 116 223C116 221.68 116 220.36 116 219C116.784 218.856 117.567 218.711 118.375 218.562C120.964 218.122 120.964 218.122 123 217C123.691 214.42 123.691 214.42 124.125 211.438C124.293 210.426 124.46 209.414 124.633 208.371C124.754 207.589 124.875 206.806 125 206Z" fill="#1F1F1F"/>
<path d="M162 203C164.64 203 167.28 203 170 203C170.66 203.66 171.32 204.32 172 205C171.67 205.99 171.34 206.98 171 208C171 207.34 171 206.68 171 206C169.68 206 168.36 206 167 206C167 206.66 167 207.32 167 208C166.34 208 165.68 208 165 208C165 210.64 165 213.28 165 216C164.67 216 164.34 216 164 216C163.67 218.31 163.34 220.62 163 223C166.3 223 169.6 223 173 223C173 223.33 173 223.66 173 224C169.37 224 165.74 224 162 224C162 217.07 162 210.14 162 203Z" fill="#292929"/>
<path d="M115 203C118.154 206.154 118.368 206.463 118.625 210.562C118.829 213.908 118.829 213.908 120 217C120.99 217.66 121.98 218.32 123 219C120.69 219 118.38 219 116 219C116 220.32 116 221.64 116 223C118.97 223 121.94 223 125 223C125 223.33 125 223.66 125 224C121.7 224 118.4 224 115 224C115 217.07 115 210.14 115 203Z" fill="#2E2E2E"/>
<path d="M205 594C211.6 594 218.2 594 225 594C225 594.33 225 594.66 225 595C216.585 595.495 216.585 595.495 208 596C207.34 598.97 206.68 601.94 206 605C214.25 605 222.5 605 231 605C231 605.33 231 605.66 231 606C222.42 606 213.84 606 205 606C205 602.04 205 598.08 205 594Z" fill="#3E3E3E"/>
<path d="M364 342C366.64 342 369.28 342 372 342C372 344.64 372 347.28 372 350C369.36 350 366.72 350 364 350C364 347.36 364 344.72 364 342Z" fill="#EEEEEE"/>
<path d="M265 207C265.99 207 266.98 207 268 207C268.33 213.6 268.66 220.2 269 227C267.68 227 266.36 227 265 227C265 220.4 265 213.8 265 207Z" fill="#1F1F1F"/>
<path d="M355 326C357.64 326 360.28 326 363 326C363 328.31 363 330.62 363 333C360.36 333 357.72 333 355 333C355 330.69 355 328.38 355 326Z" fill="#E6E6E6"/>
<path d="M264 170C264.33 170 264.66 170 265 170C265 173.3 265 176.6 265 180C268.3 180 271.6 180 275 180C275 180.33 275 180.66 275 181C271.7 181 268.4 181 265 181C265 189.25 265 197.5 265 206C264.67 206 264.34 206 264 206C264 197.75 264 189.5 264 181C260.7 181 257.4 181 254 181C254 180.67 254 180.34 254 180C257.3 180 260.6 180 264 180C264 176.7 264 173.4 264 170Z" fill="#FDFDFD"/>
<path d="M345 325C345.66 326.32 346.32 327.64 347 329C347.66 329 348.32 329 349 329C349 328.34 349 327.68 349 327C351.97 327.495 351.97 327.495 355 328C355 329.65 355 331.3 355 333C354.67 332.01 354.34 331.02 354 330C353.34 330 352.68 330 352 330C351.67 330.66 351.34 331.32 351 332C350.34 332 349.68 332 349 332C348.01 333.485 348.01 333.485 347 335C349.64 335 352.28 335 355 335C355 335.33 355 335.66 355 336C352.03 336 349.06 336 346 336C344.717 332.15 344.934 329.053 345 325Z" fill="#222222"/>
<path d="M420 430C422.31 430 424.62 430 427 430C427 432.31 427 434.62 427 437C424.69 437 422.38 437 420 437C420 434.69 420 432.38 420 430Z" fill="#DDDDDD"/>
<path d="M336 326C338.64 326 341.28 326 344 326C344 327.98 344 329.96 344 332C341.36 332 338.72 332 336 332C336 330.02 336 328.04 336 326Z" fill="#FAFAFA"/>
<path d="M433 402C433.33 402 433.66 402 434 402C434 404.31 434 406.62 434 409C435.32 408.67 436.64 408.34 438 408C438 408.66 438 409.32 438 410C439.98 409.67 441.96 409.34 444 409C443.34 410.32 442.68 411.64 442 413C439.03 413 436.06 413 433 413C433 409.37 433 405.74 433 402Z" fill="#222222"/>
<path d="M409 460C411.31 460 413.62 460 416 460C416 461.98 416 463.96 416 466C413.69 466 411.38 466 409 466C409 464.02 409 462.04 409 460Z" fill="#ECECEC"/>
<path d="M270 118C273.63 118 277.26 118 281 118C280.67 119.32 280.34 120.64 280 122C276.7 122 273.4 122 270 122C270 120.68 270 119.36 270 118Z" fill="#212121"/>
<path d="M508 592C511.3 592 514.6 592 518 592C517.01 592.495 517.01 592.495 516 593C515.409 594.946 515.409 594.946 515 597C514.67 597.66 514.34 598.32 514 599C512.68 599 511.36 599 510 599C510 597.68 510 596.36 510 595C509.34 594.67 508.68 594.34 508 594C508 593.34 508 592.68 508 592Z" fill="#292929"/>
<path d="M308 247C308.33 247 308.66 247 309 247C309.037 248.204 309.075 249.408 309.113 250.648C309.179 252.224 309.245 253.8 309.312 255.375C309.335 256.169 309.358 256.963 309.381 257.781C309.478 259.862 309.73 261.934 310 264C310.99 264.66 311.98 265.32 313 266C313 266.33 313 266.66 313 267C313.66 267 314.32 267 315 267C315 267.66 315 268.32 315 269C312.69 269 310.38 269 308 269C308 261.74 308 254.48 308 247Z" fill="#2D2D2D"/>
<path d="M418 424C421.63 424 425.26 424 429 424C429 424.99 429 425.98 429 427C425.37 427 421.74 427 418 427C418 426.01 418 425.02 418 424ZM416 427C416.99 427.495 416.99 427.495 418 428C417.01 428.495 417.01 428.495 416 429C416 428.34 416 427.68 416 427Z" fill="#1E1E1E"/>
<path d="M264 160C264.33 160 264.66 160 265 160C265 162.97 265 165.94 265 169C268.96 169 272.92 169 277 169C277 171.64 277 174.28 277 177C276.67 177 276.34 177 276 177C276 174.69 276 172.38 276 170C273.36 170 270.72 170 268 170C268 170.66 268 171.32 268 172C266.68 171.34 265.36 170.68 264 170C264 166.7 264 163.4 264 160Z" fill="#434343"/>
<path d="M300 151C300.33 151 300.66 151 301 151C301 155.62 301 160.24 301 165C298.03 165 295.06 165 292 165C292.33 164.34 292.66 163.68 293 163C293.99 163.33 294.98 163.66 296 164C296.33 163.01 296.66 162.02 297 161C297.66 161 298.32 161 299 161C299.33 157.7 299.66 154.4 300 151Z" fill="#FEFEFE"/>
<path d="M282.188 176.875C283.46 176.893 284.732 176.911 286.043 176.93C287.507 176.964 287.507 176.964 289 177C289 177.33 289 177.66 289 178C285.37 178 281.74 178 278 178C278 178.66 278 179.32 278 180C278.66 180.33 279.32 180.66 280 181C279.01 181 278.02 181 277 181C276.67 181.99 276.34 182.98 276 184C275.67 183.01 275.34 182.02 275 181C274.01 180.34 273.02 179.68 272 179C275.737 176.509 277.745 176.793 282.188 176.875Z" fill="#222222"/>
<path d="M221 147C223.64 147 226.28 147 229 147C229 147.99 229 148.98 229 150C228.34 150 227.68 150 227 150C226.67 150.99 226.34 151.98 226 153C225.01 153 224.02 153 223 153C222.67 152.01 222.34 151.02 222 150C221.67 151.32 221.34 152.64 221 154C221 151.69 221 149.38 221 147Z" fill="#1C1C1C"/>
<path d="M345 348C345.33 348.66 345.66 349.32 346 350C346.66 350 347.32 350 348 350C348 349.34 348 348.68 348 348C348.99 348.33 349.98 348.66 351 349C350.34 349 349.68 349 349 349C349 349.99 349 350.98 349 352C349.66 352 350.32 352 351 352C350.67 352.66 350.34 353.32 350 354C350.33 354.33 350.66 354.66 351 355C350.01 355.33 349.02 355.66 348 356C348 355.34 348 354.68 348 354C347.34 354 346.68 354 346 354C345.67 354.66 345.34 355.32 345 356C345 353.36 345 350.72 345 348Z" fill="#222222"/>
<path d="M384 456C387.3 456 390.6 456 394 456C394 456.99 394 457.98 394 459C390.7 459 387.4 459 384 459C384 458.01 384 457.02 384 456Z" fill="#FBFBFB"/>
<path d="M299 224C299.66 224.66 300.32 225.32 301 226C301.66 225.67 302.32 225.34 303 225C302.427 227.867 302.139 228.861 300 231C299.34 230.67 298.68 230.34 298 230C298 229.34 298 228.68 298 228C294.37 228 290.74 228 287 228C287 227.67 287 227.34 287 227C287.782 226.951 288.565 226.902 289.371 226.852C290.383 226.777 291.395 226.702 292.438 226.625C293.447 226.555 294.456 226.486 295.496 226.414C296.736 226.209 296.736 226.209 298 226C298.33 225.34 298.66 224.68 299 224Z" fill="#222222"/>
<path d="M140 217C140.33 217.66 140.66 218.32 141 219C142.65 219 144.3 219 146 219C146 219.66 146 220.32 146 221C146.99 221 147.98 221 149 221C149 221.66 149 222.32 149 223C146.03 223 143.06 223 140 223C140 221 140 219 140 217Z" fill="#1E1E1E"/>
<path d="M487 553C490.3 553 493.6 553 497 553C497 555.64 497 558.28 497 561C496.67 561 496.34 561 496 561C496 559.02 496 557.04 496 555C491.545 555.495 491.545 555.495 487 556C487 555.01 487 554.02 487 553Z" fill="#292929"/>
<path d="M269 172C269.66 173.32 270.32 174.64 271 176C270.01 176.33 269.02 176.66 268 177C268 177.99 268 178.98 268 180C267.01 180 266.02 180 265 180C265 177.69 265 175.38 265 173C266.32 172.67 267.64 172.34 269 172Z" fill="#252525"/>
<path d="M221 170C223.31 170 225.62 170 228 170C228 171.32 228 172.64 228 174C225.69 174 223.38 174 221 174C221 172.68 221 171.36 221 170Z" fill="#222222"/>
<path d="M163 127C164.32 127.99 165.64 128.98 167 130C165.35 129.67 163.7 129.34 162 129C162.33 128.34 162.66 127.68 163 127ZM162 130C163.98 130.99 163.98 130.99 166 132C166 132.66 166 133.32 166 134C166.66 134.33 167.32 134.66 168 135C166.02 135 164.04 135 162 135C162 133.35 162 131.7 162 130Z" fill="#1E1E1E"/>
<path d="M221 146C222.458 145.946 224.041 146.032 225.5 146C226.125 146.125 227.163 146.024 228 146C230.164 146.195 230 146 232 148C231.67 148.66 231.34 149.32 231 150C229.35 149.67 227.7 149.34 226 149C226 148.67 226 148.34 226 148C224.35 147.67 222.7 147.34 221 147C221 146.67 221 146.34 221 146ZM227 150C227.66 150 228.32 150 229 150C228.34 151.32 227.68 152.64 227 154C227 152.68 227 151.36 227 150Z" fill="#242424"/>
<path d="M394 435C395.32 435 396.64 435 398 435C397.814 435.639 397.629 436.279 397.438 436.938C397.221 437.958 397.221 437.958 397 439C397.33 439.33 397.66 439.66 398 440C398 440.99 398 441.98 398 443C397.01 443 396.02 443 395 443C394.67 440.36 394.34 437.72 394 435Z" fill="#1B1B1B"/>
<path d="M433 451C433.99 452.485 433.99 452.485 435 454C435.99 454.33 436.98 454.66 438 455C437.34 456.32 436.68 457.64 436 459C435.67 458.67 435.34 458.34 435 458C434.34 458.66 433.68 459.32 433 460C433 457.03 433 454.06 433 451Z" fill="#222222"/>
</g>
</g>
<defs>
<clipPath id="clip0_0_1">
<rect width="700" height="700" fill="white"/>
</clipPath>
<clipPath id="clip1_0_1">
<rect width="700" height="700" fill="white"/>
</clipPath>
</defs>
</svg>
